<?xml version="1.0" encoding="UTF-8"?>
<svg xmlns="http://www.w3.org/2000/svg" xmlns:xlink="http://www.w3.org/1999/xlink" width="1440px" height="1026px" viewBox="0 0 1080 770" version="1.1">
<defs>
<clipPath id="clip1">
  <path d="M 121 48.03125 L 163.5 48.03125 L 163.5 95.3125 L 121 95.3125 Z M 121 48.03125 "/>
</clipPath>
<clipPath id="clip2">
  <path d="M 118.5 48.03125 L 162 48.03125 L 162 95.3125 L 118.5 95.3125 Z M 118.5 48.03125 "/>
</clipPath>
<clipPath id="clip3">
  <path d="M 495.75 249.160156 L 525 249.160156 L 525 278.429688 L 495.75 278.429688 Z M 495.75 249.160156 "/>
</clipPath>
<clipPath id="clip4">
  <path d="M 313.5 499.824219 L 342.75 499.824219 L 342.75 529.09375 L 313.5 529.09375 Z M 313.5 499.824219 "/>
</clipPath>
<clipPath id="clip5">
  <path d="M 742.5 18.761719 L 771.75 18.761719 L 771.75 48.03125 L 742.5 48.03125 Z M 742.5 18.761719 "/>
</clipPath>
<clipPath id="clip6">
  <path d="M 928 520.839844 L 969.75 520.839844 L 969.75 568.117188 L 928 568.117188 Z M 928 520.839844 "/>
</clipPath>
<clipPath id="clip7">
  <path d="M 924.75 520.839844 L 969 520.839844 L 969 568.117188 L 924.75 568.117188 Z M 924.75 520.839844 "/>
</clipPath>
<clipPath id="clip8">
  <path d="M 749 104 L 810 104 L 810 161 L 749 161 Z M 749 104 "/>
</clipPath>
<clipPath id="clip9">
  <path d="M 722.628906 77.300781 L 809.164062 111.425781 L 784.035156 175.230469 L 697.5 141.105469 Z M 722.628906 77.300781 "/>
</clipPath>
<clipPath id="clip10">
  <path d="M 743 96 L 808 96 L 808 155 L 743 155 Z M 743 96 "/>
</clipPath>
<clipPath id="clip11">
  <path d="M 722.628906 77.300781 L 809.164062 111.425781 L 784.035156 175.230469 L 697.5 141.105469 Z M 722.628906 77.300781 "/>
</clipPath>
<clipPath id="clip12">
  <path d="M 719 85 L 756 85 L 756 160 L 719 160 Z M 719 85 "/>
</clipPath>
<clipPath id="clip13">
  <path d="M 722.628906 77.300781 L 809.164062 111.425781 L 784.035156 175.230469 L 697.5 141.105469 Z M 722.628906 77.300781 "/>
</clipPath>
<clipPath id="clip14">
  <path d="M 700 85 L 736 85 L 736 160 L 700 160 Z M 700 85 "/>
</clipPath>
<clipPath id="clip15">
  <path d="M 722.628906 77.300781 L 809.164062 111.425781 L 784.035156 175.230469 L 697.5 141.105469 Z M 722.628906 77.300781 "/>
</clipPath>
<clipPath id="clip16">
  <path d="M 99 531 L 147 531 L 147 577 L 99 577 Z M 99 531 "/>
</clipPath>
<clipPath id="clip17">
  <path d="M 79.101562 512.582031 L 146.484375 539.15625 L 128.132812 585.746094 L 60.75 559.171875 Z M 79.101562 512.582031 "/>
</clipPath>
<clipPath id="clip18">
  <path d="M 94 525 L 147 525 L 147 572 L 94 572 Z M 94 525 "/>
</clipPath>
<clipPath id="clip19">
  <path d="M 79.101562 512.582031 L 146.484375 539.15625 L 128.132812 585.746094 L 60.75 559.171875 Z M 79.101562 512.582031 "/>
</clipPath>
<clipPath id="clip20">
  <path d="M 75 516 L 108 516 L 108 576 L 75 576 Z M 75 516 "/>
</clipPath>
<clipPath id="clip21">
  <path d="M 79.101562 512.582031 L 146.484375 539.15625 L 128.132812 585.746094 L 60.75 559.171875 Z M 79.101562 512.582031 "/>
</clipPath>
<clipPath id="clip22">
  <path d="M 60 516 L 93 516 L 93 576 L 60 576 Z M 60 516 "/>
</clipPath>
<clipPath id="clip23">
  <path d="M 79.101562 512.582031 L 146.484375 539.15625 L 128.132812 585.746094 L 60.75 559.171875 Z M 79.101562 512.582031 "/>
</clipPath>
<clipPath id="clip24">
  <path d="M 296 89 L 344 89 L 344 134 L 296 134 Z M 296 89 "/>
</clipPath>
<clipPath id="clip25">
  <path d="M 276.351562 69.796875 L 343.734375 96.371094 L 325.382812 142.960938 L 258 116.386719 Z M 276.351562 69.796875 "/>
</clipPath>
<clipPath id="clip26">
  <path d="M 292 83 L 344 83 L 344 130 L 292 130 Z M 292 83 "/>
</clipPath>
<clipPath id="clip27">
  <path d="M 276.351562 69.796875 L 343.734375 96.371094 L 325.382812 142.960938 L 258 116.386719 Z M 276.351562 69.796875 "/>
</clipPath>
<clipPath id="clip28">
  <path d="M 272 74 L 305 74 L 305 133 L 272 133 Z M 272 74 "/>
</clipPath>
<clipPath id="clip29">
  <path d="M 276.351562 69.796875 L 343.734375 96.371094 L 325.382812 142.960938 L 258 116.386719 Z M 276.351562 69.796875 "/>
</clipPath>
<clipPath id="clip30">
  <path d="M 258 73 L 290 73 L 290 133 L 258 133 Z M 258 73 "/>
</clipPath>
<clipPath id="clip31">
  <path d="M 276.351562 69.796875 L 343.734375 96.371094 L 325.382812 142.960938 L 258 116.386719 Z M 276.351562 69.796875 "/>
</clipPath>
<clipPath id="clip32">
  <path d="M 421 620 L 469 620 L 469 666 L 421 666 Z M 421 620 "/>
</clipPath>
<clipPath id="clip33">
  <path d="M 400.851562 601.140625 L 468.234375 627.714844 L 449.882812 674.304688 L 382.5 647.730469 Z M 400.851562 601.140625 "/>
</clipPath>
<clipPath id="clip34">
  <path d="M 416 614 L 469 614 L 469 661 L 416 661 Z M 416 614 "/>
</clipPath>
<clipPath id="clip35">
  <path d="M 400.851562 601.140625 L 468.234375 627.714844 L 449.882812 674.304688 L 382.5 647.730469 Z M 400.851562 601.140625 "/>
</clipPath>
<clipPath id="clip36">
  <path d="M 397 605 L 430 605 L 430 664 L 397 664 Z M 397 605 "/>
</clipPath>
<clipPath id="clip37">
  <path d="M 400.851562 601.140625 L 468.234375 627.714844 L 449.882812 674.304688 L 382.5 647.730469 Z M 400.851562 601.140625 "/>
</clipPath>
<clipPath id="clip38">
  <path d="M 382 605 L 414 605 L 414 665 L 382 665 Z M 382 605 "/>
</clipPath>
<clipPath id="clip39">
  <path d="M 400.851562 601.140625 L 468.234375 627.714844 L 449.882812 674.304688 L 382.5 647.730469 Z M 400.851562 601.140625 "/>
</clipPath>
<clipPath id="clip40">
  <path d="M 850 658 L 898 658 L 898 703 L 850 703 Z M 850 658 "/>
</clipPath>
<clipPath id="clip41">
  <path d="M 829.851562 638.664062 L 897.238281 665.238281 L 878.886719 711.828125 L 811.503906 685.253906 Z M 829.851562 638.664062 "/>
</clipPath>
<clipPath id="clip42">
  <path d="M 845 651 L 898 651 L 898 698 L 845 698 Z M 845 651 "/>
</clipPath>
<clipPath id="clip43">
  <path d="M 829.851562 638.664062 L 897.238281 665.238281 L 878.886719 711.828125 L 811.503906 685.253906 Z M 829.851562 638.664062 "/>
</clipPath>
<clipPath id="clip44">
  <path d="M 826 643 L 859 643 L 859 702 L 826 702 Z M 826 643 "/>
</clipPath>
<clipPath id="clip45">
  <path d="M 829.851562 638.664062 L 897.238281 665.238281 L 878.886719 711.828125 L 811.503906 685.253906 Z M 829.851562 638.664062 "/>
</clipPath>
<clipPath id="clip46">
  <path d="M 811 642 L 843 642 L 843 702 L 811 702 Z M 811 642 "/>
</clipPath>
<clipPath id="clip47">
  <path d="M 829.851562 638.664062 L 897.238281 665.238281 L 878.886719 711.828125 L 811.503906 685.253906 Z M 829.851562 638.664062 "/>
</clipPath>
</defs>
<g id="surface1">
<rect x="0" y="0" width="1080" height="770" style="fill:rgb(100%,100%,100%);fill-opacity:1;stroke:none;"/>
<g clip-path="url(#clip1)" clip-rule="nonzero">
<path style="fill:none;stroke-width:0.75;stroke-linecap:butt;stroke-linejoin:miter;stroke:rgb(26.27451%,16.078431%,9.411765%);stroke-opacity:1;stroke-miterlimit:10;" d="M 181.010417 108.065199 C 177.875 115.232417 177.026042 120.760075 173.239583 126.079535 C 185.510417 128.994308 201.442708 121.072372 210.796875 106.691092 C 220.364583 91.987104 219.71875 75.638352 209.895833 68.231707 C 203.572917 72.822474 190.395833 86.58957 181.010417 108.065199 Z M 181.010417 108.065199 " transform="matrix(0.75,0,0,0.750487,0,0)"/>
</g>
<g clip-path="url(#clip2)" clip-rule="nonzero">
<path style="fill:none;stroke-width:0.75;stroke-linecap:butt;stroke-linejoin:miter;stroke:rgb(26.27451%,16.078431%,9.411765%);stroke-opacity:1;stroke-miterlimit:10;" d="M 168.078125 124.070424 C 170.609375 119.635806 171.859375 112.520637 174.651042 104.973458 C 180.994792 87.838758 195.354167 68.325396 204.869792 65.894683 C 204.989583 65.868659 205.166667 65.811404 205.390625 65.738535 C 192.854167 60.882315 175.239583 68.882325 165.203125 84.309801 C 155.03125 99.945475 156.401042 117.444521 168.078125 124.070424 Z M 168.078125 124.070424 " transform="matrix(0.75,0,0,0.750487,0,0)"/>
</g>
<g clip-path="url(#clip3)" clip-rule="nonzero">
<path style="fill:none;stroke-width:0.75;stroke-linecap:butt;stroke-linejoin:miter;stroke:rgb(26.27451%,16.078431%,9.411765%);stroke-opacity:1;stroke-miterlimit:10;" d="M 675.958333 359.276968 C 673.916667 363.716792 673.364583 367.136445 670.90625 370.431179 C 678.880208 372.232092 689.239583 367.329028 695.317708 358.428561 C 701.536458 349.325101 701.119792 339.201471 694.729167 334.615909 C 690.619792 337.463017 682.057292 345.983523 675.958333 359.276968 Z M 675.958333 359.276968 " transform="matrix(0.75,0,0,0.750487,0,0)"/>
<path style="fill:none;stroke-width:0.75;stroke-linecap:butt;stroke-linejoin:miter;stroke:rgb(26.27451%,16.078431%,9.411765%);stroke-opacity:1;stroke-miterlimit:10;" d="M 667.552083 369.187196 C 669.197917 366.444186 670.010417 362.035593 671.822917 357.361546 C 675.942708 346.75906 685.28125 334.678369 691.463542 333.174138 C 691.541667 333.153318 691.65625 333.122088 691.802083 333.075244 C 683.65625 330.071987 672.208333 335.021895 665.682292 344.572981 C 659.067708 354.25419 659.958333 365.085694 667.552083 369.187196 Z M 667.552083 369.187196 " transform="matrix(0.75,0,0,0.750487,0,0)"/>
</g>
<g clip-path="url(#clip4)" clip-rule="nonzero">
<path style="fill:none;stroke-width:0.75;stroke-linecap:butt;stroke-linejoin:miter;stroke:rgb(26.27451%,16.078431%,9.411765%);stroke-opacity:1;stroke-miterlimit:10;" d="M 432.958333 693.278693 C 430.916667 697.718517 430.364583 701.13817 427.90625 704.427699 C 435.880208 706.233817 446.239583 701.330753 452.317708 692.430286 C 458.536458 683.321621 458.119792 673.203196 451.729167 668.617634 C 447.619792 671.464742 439.057292 679.985248 432.958333 693.278693 Z M 432.958333 693.278693 " transform="matrix(0.75,0,0,0.750487,0,0)"/>
<path style="fill:none;stroke-width:0.75;stroke-linecap:butt;stroke-linejoin:miter;stroke:rgb(26.27451%,16.078431%,9.411765%);stroke-opacity:1;stroke-miterlimit:10;" d="M 424.552083 703.183716 C 426.197917 700.440706 427.010417 696.037317 428.822917 691.363271 C 432.942708 680.75558 442.28125 668.680093 448.463542 667.175862 C 448.541667 667.155043 448.65625 667.118608 448.802083 667.076968 C 440.65625 664.068506 429.208333 669.02362 422.682292 678.574706 C 416.067708 688.25071 416.958333 699.082214 424.552083 703.183716 Z M 424.552083 703.183716 " transform="matrix(0.75,0,0,0.750487,0,0)"/>
</g>
<g clip-path="url(#clip5)" clip-rule="nonzero">
<path style="fill:none;stroke-width:0.75;stroke-linecap:butt;stroke-linejoin:miter;stroke:rgb(26.27451%,16.078431%,9.411765%);stroke-opacity:1;stroke-miterlimit:10;" d="M 1004.958333 52.278531 C 1002.921875 56.713149 1002.369792 60.138007 999.90625 63.427537 C 1007.880208 65.233655 1018.239583 60.330591 1024.317708 51.430124 C 1030.541667 42.321459 1030.119792 32.203034 1023.729167 27.617472 C 1019.619792 30.46458 1011.0625 38.985085 1004.958333 52.278531 Z M 1004.958333 52.278531 " transform="matrix(0.75,0,0,0.750487,0,0)"/>
<path style="fill:none;stroke-width:0.75;stroke-linecap:butt;stroke-linejoin:miter;stroke:rgb(26.27451%,16.078431%,9.411765%);stroke-opacity:1;stroke-miterlimit:10;" d="M 996.552083 62.183553 C 998.197917 59.440544 999.010417 55.037155 1000.817708 50.363109 C 1004.947917 39.755418 1014.28125 27.679931 1020.458333 26.1757 C 1020.541667 26.15488 1020.661458 26.118446 1020.802083 26.076806 C 1012.661458 23.068344 1001.208333 28.023458 994.682292 37.574543 C 988.067708 47.250548 988.958333 58.082052 996.552083 62.183553 Z M 996.552083 62.183553 " transform="matrix(0.75,0,0,0.750487,0,0)"/>
</g>
<g clip-path="url(#clip6)" clip-rule="nonzero">
<path style="fill:none;stroke-width:0.75;stroke-linecap:butt;stroke-linejoin:miter;stroke:rgb(26.27451%,16.078431%,9.411765%);stroke-opacity:1;stroke-miterlimit:10;" d="M 1256.010417 738.067299 C 1252.880208 745.234517 1252.020833 750.75697 1248.239583 756.076431 C 1260.510417 758.991203 1276.4375 751.069267 1285.802083 736.693192 C 1295.369792 721.984 1294.71875 705.635248 1284.890625 698.228602 C 1278.567708 702.824574 1265.401042 716.59167 1256.010417 738.067299 Z M 1256.010417 738.067299 " transform="matrix(0.75,0,0,0.750487,0,0)"/>
</g>
<g clip-path="url(#clip7)" clip-rule="nonzero">
<path style="fill:none;stroke-width:0.75;stroke-linecap:butt;stroke-linejoin:miter;stroke:rgb(26.27451%,16.078431%,9.411765%);stroke-opacity:1;stroke-miterlimit:10;" d="M 1243.078125 754.072524 C 1245.609375 749.637906 1246.859375 742.522737 1249.651042 734.975558 C 1255.989583 717.840858 1270.359375 698.327496 1279.869792 695.896784 C 1279.989583 695.865554 1280.161458 695.813504 1280.390625 695.73543 C 1267.859375 690.884416 1250.239583 698.884426 1240.197917 714.311901 C 1230.03125 729.947575 1231.401042 747.441416 1243.078125 754.072524 Z M 1243.078125 754.072524 " transform="matrix(0.75,0,0,0.750487,0,0)"/>
</g>
<g clip-path="url(#clip8)" clip-rule="nonzero">
<g clip-path="url(#clip9)" clip-rule="nonzero">
<path style="fill:none;stroke-width:0.75;stroke-linecap:butt;stroke-linejoin:miter;stroke:rgb(26.27451%,16.078431%,9.411765%);stroke-opacity:1;stroke-miterlimit:10;" d="M 1025.21875 182.287804 C 1019.208333 188.856453 1016.0625 194.50903 1010.21875 198.844754 C 1020.5625 206.553287 1038.96875 203.929992 1053.921875 191.885735 C 1069.208333 179.565615 1075.5625 161.676197 1069.432292 150.022311 C 1061.510417 152.629992 1043.21875 162.592269 1025.21875 182.287804 Z M 1025.21875 182.287804 " transform="matrix(0.75,0,0,0.750487,0,0)"/>
</g>
</g>
<g clip-path="url(#clip10)" clip-rule="nonzero">
<g clip-path="url(#clip11)" clip-rule="nonzero">
<path style="fill:none;stroke-width:0.75;stroke-linecap:butt;stroke-linejoin:miter;stroke:rgb(26.27451%,16.078431%,9.411765%);stroke-opacity:1;stroke-miterlimit:10;" d="M 1006.197917 194.753663 C 1010.479167 190.912409 1014.682292 183.693141 1020.53125 176.583178 C 1033.8125 160.442624 1055.671875 144.718466 1065.682292 145.634537 C 1065.8125 145.644947 1066 145.650152 1066.239583 145.655357 C 1056.479167 135.75554 1036.447917 137.83752 1020.411458 150.761414 C 1004.151042 163.857072 998 183.255925 1006.197917 194.753663 Z M 1006.197917 194.753663 " transform="matrix(0.75,0,0,0.750487,0,0)"/>
</g>
</g>
<g clip-path="url(#clip12)" clip-rule="nonzero">
<g clip-path="url(#clip13)" clip-rule="nonzero">
<path style="fill:none;stroke-width:0.75;stroke-linecap:butt;stroke-linejoin:miter;stroke:rgb(26.27451%,16.078431%,9.411765%);stroke-opacity:1;stroke-miterlimit:10;" d="M 972.109375 179.716558 C 973.604167 188.492106 976.119792 194.451776 975.953125 201.723093 C 988.390625 198.30344 997.635417 182.157681 997.317708 162.967025 C 996.994792 143.333949 986.78125 127.333929 973.822917 125.007315 C 971.010417 132.861587 967.630208 153.41594 972.109375 179.716558 Z M 972.109375 179.716558 " transform="matrix(0.75,0,0,0.750487,0,0)"/>
</g>
</g>
<g clip-path="url(#clip14)" clip-rule="nonzero">
<g clip-path="url(#clip15)" clip-rule="nonzero">
<path style="fill:none;stroke-width:0.75;stroke-linecap:butt;stroke-linejoin:miter;stroke:rgb(26.27451%,16.078431%,9.411765%);stroke-opacity:1;stroke-miterlimit:10;" d="M 970.260417 202.378916 C 969.854167 196.64306 966.744792 188.887683 964.729167 179.903937 C 960.15625 159.516142 961.182292 132.606544 968.057292 125.267563 C 968.140625 125.179079 968.260417 125.028135 968.416667 124.840757 C 954.604167 126.459497 943.9375 143.542147 944.276042 164.138139 C 944.625 185.009994 956.145833 201.785552 970.260417 202.378916 Z M 970.260417 202.378916 " transform="matrix(0.75,0,0,0.750487,0,0)"/>
</g>
</g>
<g clip-path="url(#clip16)" clip-rule="nonzero">
<g clip-path="url(#clip17)" clip-rule="nonzero">
<path style="fill:none;stroke-width:0.75;stroke-linecap:butt;stroke-linejoin:miter;stroke:rgb(26.27451%,16.078431%,9.411765%);stroke-opacity:1;stroke-miterlimit:10;" d="M 154.432292 742.434253 C 149.901042 747.175964 147.557292 751.287875 143.119792 754.384821 C 151.234375 760.235187 165.411458 758.606037 176.755208 749.981433 C 188.354167 741.15904 192.963542 728.084203 188.041667 719.397139 C 181.963542 721.187642 168.005208 728.224736 154.432292 742.434253 Z M 154.432292 742.434253 " transform="matrix(0.75,0,0,0.750487,0,0)"/>
</g>
</g>
<g clip-path="url(#clip18)" clip-rule="nonzero">
<g clip-path="url(#clip19)" clip-rule="nonzero">
<path style="fill:none;stroke-width:0.75;stroke-linecap:butt;stroke-linejoin:miter;stroke:rgb(26.27451%,16.078431%,9.411765%);stroke-opacity:1;stroke-miterlimit:10;" d="M 139.953125 751.30349 C 143.192708 748.544866 146.317708 743.298275 150.71875 738.155783 C 160.703125 726.481078 177.322917 715.259203 185.072917 716.102405 C 185.166667 716.112815 185.3125 716.118019 185.505208 716.123224 C 177.796875 708.669734 162.364583 709.872078 150.192708 719.126481 C 137.859375 728.505804 133.427083 742.699706 139.953125 751.30349 Z M 139.953125 751.30349 " transform="matrix(0.75,0,0,0.750487,0,0)"/>
</g>
</g>
<g clip-path="url(#clip20)" clip-rule="nonzero">
<g clip-path="url(#clip21)" clip-rule="nonzero">
<path style="fill:none;stroke-width:0.75;stroke-linecap:butt;stroke-linejoin:miter;stroke:rgb(26.27451%,16.078431%,9.411765%);stroke-opacity:1;stroke-miterlimit:10;" d="M 113.380208 739.660014 C 114.677083 746.150588 116.71875 750.585207 116.713542 755.935897 C 126.260417 753.619694 133.130208 741.882528 132.567708 727.740676 C 131.989583 713.270911 123.838542 701.315138 113.796875 699.384101 C 111.755208 705.125162 109.484375 720.209111 113.380208 739.660014 Z M 113.380208 739.660014 " transform="matrix(0.75,0,0,0.750487,0,0)"/>
</g>
</g>
<g clip-path="url(#clip22)" clip-rule="nonzero">
<g clip-path="url(#clip23)" clip-rule="nonzero">
<path style="fill:none;stroke-width:0.75;stroke-linecap:butt;stroke-linejoin:miter;stroke:rgb(26.27451%,16.078431%,9.411765%);stroke-opacity:1;stroke-miterlimit:10;" d="M 112.328125 756.326268 C 111.916667 752.094643 109.390625 746.332762 107.682292 739.680834 C 103.8125 724.58127 104.161458 704.776431 109.348958 699.482995 C 109.411458 699.415331 109.505208 699.311232 109.619792 699.170698 C 98.979167 700.138819 91.026042 712.547423 91.630208 727.725061 C 92.244792 743.105692 101.416667 755.65483 112.328125 756.326268 Z M 112.328125 756.326268 " transform="matrix(0.75,0,0,0.750487,0,0)"/>
</g>
</g>
<g clip-path="url(#clip24)" clip-rule="nonzero">
<g clip-path="url(#clip25)" clip-rule="nonzero">
<path style="fill:none;stroke-width:0.75;stroke-linecap:butt;stroke-linejoin:miter;stroke:rgb(26.27451%,16.078431%,9.411765%);stroke-opacity:1;stroke-miterlimit:10;" d="M 417.432292 152.432204 C 412.901042 157.179119 410.557292 161.285826 406.119792 164.382772 C 414.234375 170.233137 428.411458 168.603987 439.755208 159.979383 C 451.354167 151.156991 455.963542 138.082153 451.041667 129.395089 C 444.963542 131.185593 431.005208 138.222687 417.432292 152.432204 Z M 417.432292 152.432204 " transform="matrix(0.75,0,0,0.750487,0,0)"/>
</g>
</g>
<g clip-path="url(#clip26)" clip-rule="nonzero">
<g clip-path="url(#clip27)" clip-rule="nonzero">
<path style="fill:none;stroke-width:0.75;stroke-linecap:butt;stroke-linejoin:miter;stroke:rgb(26.27451%,16.078431%,9.411765%);stroke-opacity:1;stroke-miterlimit:10;" d="M 402.953125 161.306646 C 406.192708 158.542817 409.317708 153.296226 413.71875 148.153734 C 423.703125 136.484233 440.322917 125.262358 448.072917 126.100355 C 448.166667 126.110765 448.3125 126.121175 448.505208 126.12638 C 440.796875 118.667685 425.364583 119.870028 413.192708 129.124432 C 400.859375 138.508959 396.427083 152.697656 402.953125 161.306646 Z M 402.953125 161.306646 " transform="matrix(0.75,0,0,0.750487,0,0)"/>
</g>
</g>
<g clip-path="url(#clip28)" clip-rule="nonzero">
<g clip-path="url(#clip29)" clip-rule="nonzero">
<path style="fill:none;stroke-width:0.75;stroke-linecap:butt;stroke-linejoin:miter;stroke:rgb(26.27451%,16.078431%,9.411765%);stroke-opacity:1;stroke-miterlimit:10;" d="M 376.380208 149.657965 C 377.677083 156.153744 379.71875 160.583157 379.713542 165.939052 C 389.260417 163.622849 396.130208 151.885684 395.567708 137.738626 C 394.989583 123.268862 386.838542 111.313088 376.796875 109.382052 C 374.755208 115.123113 372.484375 130.212267 376.380208 149.657965 Z M 376.380208 149.657965 " transform="matrix(0.75,0,0,0.750487,0,0)"/>
</g>
</g>
<g clip-path="url(#clip30)" clip-rule="nonzero">
<g clip-path="url(#clip31)" clip-rule="nonzero">
<path style="fill:none;stroke-width:0.75;stroke-linecap:butt;stroke-linejoin:miter;stroke:rgb(26.27451%,16.078431%,9.411765%);stroke-opacity:1;stroke-miterlimit:10;" d="M 375.328125 166.324219 C 374.916667 162.092593 372.390625 156.330712 370.682292 149.678784 C 366.8125 134.579221 367.161458 114.774381 372.348958 109.480946 C 372.411458 109.413281 372.505208 109.309182 372.619792 109.173853 C 361.979167 110.136769 354.026042 122.545373 354.630208 137.723011 C 355.239583 153.108847 364.416667 165.657985 375.328125 166.324219 Z M 375.328125 166.324219 " transform="matrix(0.75,0,0,0.750487,0,0)"/>
</g>
</g>
<path style="fill:none;stroke-width:0.75;stroke-linecap:butt;stroke-linejoin:miter;stroke:rgb(26.27451%,16.078431%,9.411765%);stroke-opacity:1;stroke-miterlimit:10;" d="M 832.692708 758.501938 C 829.328125 761.822697 827.625 764.73747 824.302083 766.876705 C 830.614583 771.254069 841.395833 770.364022 849.875 764.383533 C 858.546875 758.267715 861.796875 748.945647 857.869792 742.595607 C 853.270833 743.761516 842.760417 748.544866 832.692708 758.501938 Z M 832.692708 758.501938 " transform="matrix(0.75,0,0,0.750487,0,0)"/>
<path style="fill:none;stroke-width:0.75;stroke-linecap:butt;stroke-linejoin:miter;stroke:rgb(26.27451%,16.078431%,9.411765%);stroke-opacity:1;stroke-miterlimit:10;" d="M 821.822917 764.596936 C 824.239583 762.676309 826.520833 758.959974 829.770833 755.347737 C 837.15625 747.149939 849.609375 739.404972 855.536458 740.164894 C 855.614583 740.175304 855.723958 740.180509 855.869792 740.190919 C 849.838542 734.668466 838.088542 735.225396 828.989583 741.643101 C 819.765625 748.144085 816.671875 758.267715 821.822917 764.596936 Z M 821.822917 764.596936 " transform="matrix(0.75,0,0,0.750487,0,0)"/>
<path style="fill:none;stroke-width:0.75;stroke-linecap:butt;stroke-linejoin:miter;stroke:rgb(26.27451%,16.078431%,9.411765%);stroke-opacity:1;stroke-miterlimit:10;" d="M 801.3125 755.680854 C 802.4375 760.37572 804.083333 763.607995 804.182292 767.459659 C 811.421875 765.986658 816.427083 757.679556 815.713542 747.483056 C 814.984375 737.057539 808.520833 728.287196 800.822917 726.694481 C 799.380208 730.785572 797.953125 741.601461 801.3125 755.680854 Z M 801.3125 755.680854 " transform="matrix(0.75,0,0,0.750487,0,0)"/>
<path style="fill:none;stroke-width:0.75;stroke-linecap:butt;stroke-linejoin:miter;stroke:rgb(26.27451%,16.078431%,9.411765%);stroke-opacity:1;stroke-miterlimit:10;" d="M 800.848958 767.652242 C 800.447917 764.602141 798.40625 760.401745 796.96875 755.576755 C 793.713542 744.630743 793.578125 730.384791 797.427083 726.678866 C 797.479167 726.632021 797.546875 726.559152 797.630208 726.460258 C 789.53125 726.939113 783.713542 735.709456 784.479167 746.650264 C 785.255208 757.73681 792.510417 766.954779 800.848958 767.652242 Z M 800.848958 767.652242 " transform="matrix(0.75,0,0,0.750487,0,0)"/>
<path style="fill:none;stroke-width:0.75;stroke-linecap:butt;stroke-linejoin:miter;stroke:rgb(26.27451%,16.078431%,9.411765%);stroke-opacity:1;stroke-miterlimit:10;" d="M 307.447917 460.013596 C 302.833333 461.023356 299.833333 462.574432 295.885417 462.605662 C 298.875 469.67919 308.463542 474.691558 318.828125 474.165858 C 329.427083 473.634953 337.15625 467.498316 337.229167 460.029211 C 332.71875 458.556209 321.28125 456.979109 307.447917 460.013596 Z M 307.447917 460.013596 " transform="matrix(0.75,0,0,0.750487,0,0)"/>
<path style="fill:none;stroke-width:0.75;stroke-linecap:butt;stroke-linejoin:miter;stroke:rgb(26.27451%,16.078431%,9.411765%);stroke-opacity:1;stroke-miterlimit:10;" d="M 295.005208 459.357772 C 298.072917 459.01945 301.989583 457.098823 306.666667 455.787175 C 317.291667 452.799533 331.953125 452.914042 336.557292 456.724067 C 336.614583 456.770911 336.708333 456.838575 336.822917 456.92706 C 334.682292 449.036353 324.453125 443.222423 313.333333 443.784558 C 302.0625 444.351897 294.03125 451.253663 295.005208 459.357772 Z M 295.005208 459.357772 " transform="matrix(0.75,0,0,0.750487,0,0)"/>
<path style="fill:none;stroke-width:0.75;stroke-linecap:butt;stroke-linejoin:miter;stroke:rgb(26.27451%,16.078431%,9.411765%);stroke-opacity:1;stroke-miterlimit:10;" d="M 282.4375 440.85417 C 280.875 445.424117 280.536458 449.041558 278.5625 452.346703 C 285.46875 454.969998 294.140625 450.623864 298.989583 441.624503 C 303.942708 432.422149 303.171875 421.559416 297.510417 416.099422 C 294.109375 418.785177 287.119792 427.159943 282.4375 440.85417 Z M 282.4375 440.85417 " transform="matrix(0.75,0,0,0.750487,0,0)"/>
<path style="fill:none;stroke-width:0.75;stroke-linecap:butt;stroke-linejoin:miter;stroke:rgb(26.27451%,16.078431%,9.411765%);stroke-opacity:1;stroke-miterlimit:10;" d="M 275.640625 450.727963 C 276.9375 447.932904 277.453125 443.290087 278.817708 438.449483 C 281.916667 427.456625 289.421875 415.339499 294.65625 414.267279 C 294.71875 414.251664 294.817708 414.225639 294.942708 414.189205 C 287.838542 410.269876 278.234375 414.574371 273.036458 424.224351 C 267.765625 434.009659 268.973958 445.67916 275.640625 450.727963 Z M 275.640625 450.727963 " transform="matrix(0.75,0,0,0.750487,0,0)"/>
<g clip-path="url(#clip32)" clip-rule="nonzero">
<g clip-path="url(#clip33)" clip-rule="nonzero">
<path style="fill:none;stroke-width:0.75;stroke-linecap:butt;stroke-linejoin:miter;stroke:rgb(26.27451%,16.078431%,9.411765%);stroke-opacity:1;stroke-miterlimit:10;" d="M 583.432292 860.430499 C 578.901042 865.177415 576.557292 869.284121 572.119792 872.381067 C 580.234375 878.236638 594.411458 876.607488 605.755208 867.977679 C 617.354167 859.155286 621.963542 846.080448 617.041667 837.39859 C 610.963542 839.183888 597.005208 846.220982 583.432292 860.430499 Z M 583.432292 860.430499 " transform="matrix(0.75,0,0,0.750487,0,0)"/>
</g>
</g>
<g clip-path="url(#clip34)" clip-rule="nonzero">
<g clip-path="url(#clip35)" clip-rule="nonzero">
<path style="fill:none;stroke-width:0.75;stroke-linecap:butt;stroke-linejoin:miter;stroke:rgb(26.27451%,16.078431%,9.411765%);stroke-opacity:1;stroke-miterlimit:10;" d="M 568.953125 869.304941 C 572.192708 866.546317 575.317708 861.294521 579.71875 856.152029 C 589.703125 844.482528 606.322917 833.260653 614.072917 834.098651 C 614.166667 834.10906 614.3125 834.11947 614.505208 834.124675 C 606.796875 826.671185 591.364583 827.873529 579.192708 837.127932 C 566.859375 846.507254 562.427083 860.695952 568.953125 869.304941 Z M 568.953125 869.304941 " transform="matrix(0.75,0,0,0.750487,0,0)"/>
</g>
</g>
<g clip-path="url(#clip36)" clip-rule="nonzero">
<g clip-path="url(#clip37)" clip-rule="nonzero">
<path style="fill:none;stroke-width:0.75;stroke-linecap:butt;stroke-linejoin:miter;stroke:rgb(26.27451%,16.078431%,9.411765%);stroke-opacity:1;stroke-miterlimit:10;" d="M 542.380208 857.661465 C 543.677083 864.152039 545.71875 868.586658 545.713542 873.937348 C 555.260417 871.621144 562.130208 859.883979 561.567708 845.736922 C 560.989583 831.272362 552.838542 819.311384 542.796875 817.385552 C 540.755208 823.121408 538.484375 838.210562 542.380208 857.661465 Z M 542.380208 857.661465 " transform="matrix(0.75,0,0,0.750487,0,0)"/>
</g>
</g>
<g clip-path="url(#clip38)" clip-rule="nonzero">
<g clip-path="url(#clip39)" clip-rule="nonzero">
<path style="fill:none;stroke-width:0.75;stroke-linecap:butt;stroke-linejoin:miter;stroke:rgb(26.27451%,16.078431%,9.411765%);stroke-opacity:1;stroke-miterlimit:10;" d="M 541.328125 874.327719 C 540.916667 870.096094 538.390625 864.329008 536.682292 857.67708 C 532.8125 842.582721 533.161458 822.772677 538.348958 817.479241 C 538.411458 817.416782 538.505208 817.307478 538.619792 817.172149 C 527.979167 818.135065 520.026042 830.543669 520.630208 845.726512 C 521.239583 861.107143 530.416667 873.65628 541.328125 874.327719 Z M 541.328125 874.327719 " transform="matrix(0.75,0,0,0.750487,0,0)"/>
</g>
</g>
<g clip-path="url(#clip40)" clip-rule="nonzero">
<g clip-path="url(#clip41)" clip-rule="nonzero">
<path style="fill:none;stroke-width:0.75;stroke-linecap:butt;stroke-linejoin:miter;stroke:rgb(26.27451%,16.078431%,9.411765%);stroke-opacity:1;stroke-miterlimit:10;" d="M 1155.432292 910.434466 C 1150.901042 915.176177 1148.5625 919.288088 1144.119792 922.385034 C 1152.239583 928.2354 1166.411458 926.60625 1177.75 917.981646 C 1189.359375 909.159253 1193.958333 896.084416 1189.041667 887.397352 C 1182.958333 889.187855 1169 896.224949 1155.432292 910.434466 Z M 1155.432292 910.434466 " transform="matrix(0.75,0,0,0.750487,0,0)"/>
</g>
</g>
<g clip-path="url(#clip42)" clip-rule="nonzero">
<g clip-path="url(#clip43)" clip-rule="nonzero">
<path style="fill:none;stroke-width:0.75;stroke-linecap:butt;stroke-linejoin:miter;stroke:rgb(26.27451%,16.078431%,9.411765%);stroke-opacity:1;stroke-miterlimit:10;" d="M 1140.947917 919.303703 C 1144.1875 916.545079 1147.317708 911.298488 1151.71875 906.155996 C 1161.697917 894.481291 1178.317708 883.259416 1186.067708 884.097413 C 1186.171875 884.113028 1186.3125 884.118233 1186.5 884.123437 C 1178.802083 876.669947 1163.369792 877.872291 1151.1875 887.126694 C 1138.859375 896.506017 1134.432292 910.699919 1140.947917 919.303703 Z M 1140.947917 919.303703 " transform="matrix(0.75,0,0,0.750487,0,0)"/>
</g>
</g>
<g clip-path="url(#clip44)" clip-rule="nonzero">
<g clip-path="url(#clip45)" clip-rule="nonzero">
<path style="fill:none;stroke-width:0.75;stroke-linecap:butt;stroke-linejoin:miter;stroke:rgb(26.27451%,16.078431%,9.411765%);stroke-opacity:1;stroke-miterlimit:10;" d="M 1114.380208 907.660227 C 1115.682292 914.150802 1117.71875 918.58542 1117.708333 923.93611 C 1127.260417 921.619907 1134.130208 909.882741 1133.567708 895.740889 C 1132.989583 881.271124 1124.838542 869.315351 1114.802083 867.384314 C 1112.760417 873.125375 1110.489583 888.209324 1114.380208 907.660227 Z M 1114.380208 907.660227 " transform="matrix(0.75,0,0,0.750487,0,0)"/>
</g>
</g>
<g clip-path="url(#clip46)" clip-rule="nonzero">
<g clip-path="url(#clip47)" clip-rule="nonzero">
<path style="fill:none;stroke-width:0.75;stroke-linecap:butt;stroke-linejoin:miter;stroke:rgb(26.27451%,16.078431%,9.411765%);stroke-opacity:1;stroke-miterlimit:10;" d="M 1113.328125 924.326481 C 1112.921875 920.094856 1110.390625 914.332975 1108.682292 907.681047 C 1104.8125 892.581483 1105.161458 872.771439 1110.348958 867.483208 C 1110.411458 867.415544 1110.5 867.311445 1110.619792 867.170911 C 1099.979167 868.139032 1092.03125 880.542431 1092.630208 895.725274 C 1093.239583 911.105905 1102.421875 923.655043 1113.328125 924.326481 Z M 1113.328125 924.326481 " transform="matrix(0.75,0,0,0.750487,0,0)"/>
</g>
</g>
</g>
</svg>
